<?xml version="1.0" encoding="iso-8859-1"?>
<!-- Generator: Adobe Illustrator 16.0.0, SVG Export Plug-In . SVG Version: 6.00 Build 0)  -->
<!DOCTYPE svg PUBLIC "-//W3C//DTD SVG 1.1//EN" "http://www.w3.org/Graphics/SVG/1.1/DTD/svg11.dtd">
<svg xmlns="http://www.w3.org/2000/svg" xmlns:xlink="http://www.w3.org/1999/xlink" version="1.1" id="Capa_1" x="0px" y="0px" width="512px" height="512px" viewBox="0 0 31.067 31.067" style="enable-background:new 0 0 31.067 31.067;" xml:space="preserve">
<g>
	<path d="M15.593,0.02C5.846,0.544,4.054,16.562,4.054,16.562s-2.108-0.104-2.846-1.422c-0.843,1.527,2.529,3.898,2.529,3.898   s-3.793,2.951-3.161,4.637c0.842-0.896,2.16-1.738,2.16-1.738s-3.529,4.638-2.477,7.166c0.737-1.846,1.738-1.581,1.738-1.581   s1.476,1.844-0.053,2.903c0.896,0.732,5.27-2.324,5.27-2.324s0.632,1.478-2.529,2.688c2.739,1.211,7.324-4.638,8.062-5.586   c0.737-0.948-0.843-1.422-0.685-2.477c0.157-1.055,1.79-1.424,2.212-2.794c-0.737-0.052-1-4.53-1-4.53s0.369,2.846,1.581,1.896   c-0.687-1.158-0.37-6.006-0.37-6.006s8.641-1.688,9.01-3.215c-0.896,2.687-0.553,4.083-0.211,3.741   c0.369-1.37,1.371-1.37,1.371-1.37s-5.008,11.013-4.533,14.333c0.476,3.318,7.957,8.008,10.539,5.644   c0.736-1.324,0.213-2.629-0.844-2.377c0.315,2.001-3.531,0.844-3.531,0.844s1.529-1.211,0.475-1.844   c-0.577,0.946-0.891-0.231-0.891-0.231s0.943-3.244,1.682-3.562c0.738-0.316,1.687,0.157,2.267,0.791   c0.633-0.791-3.635-5.006-3.635-5.006l1.666,0.58c0,0,0.02-3.162-1.353-4.062c1.267-4.896-2-8.269-2-8.269l2.105,2.424   C26.603,9.712,25.338-0.507,15.593,0.02z" fill="#D80027"/>
</g>
<g>
</g>
<g>
</g>
<g>
</g>
<g>
</g>
<g>
</g>
<g>
</g>
<g>
</g>
<g>
</g>
<g>
</g>
<g>
</g>
<g>
</g>
<g>
</g>
<g>
</g>
<g>
</g>
<g>
</g>
</svg>
